# xmcd
#
# Track frame offsets: 
#        150
#        11861
#        25968
#        40137
#        54828
#        70551
#        89199
#        101229
#        118045
#        128829
#        141543
#        154562
#
# Disc length: 2311 seconds
#
# Revision: 0
# Processed by: cddbd v1.5.2PL0 Copyright (c) Steve Scherf et al.
# Submitted via: ExactAudioCopy v0.99pb4
#
DISCID=a609050c
DTITLE=The Johnny Otis Show - Cuttin' Up
DYEAR=1970
DGENRE=Blues
TTITLE0=The Watts Breakaway
TTITLE1=Mo-Jo Woman
TTITLE2=Barrelhouse Blues
TTITLE3=Evil Gal Blues
TTITLE4=It's Good To Be Free
TTITLE5=I Can Stand To See You Die
TTITLE6=Don't Stretch This Good Thing Too Far
TTITLE7=Elim Stole My Baby
TTITLE8=I Got The Walkin' Blues
TTITLE9=You Can Depend On Me
TTITLE10=Double Crossing Blues
TTITLE11=Cuttin' Up
EXTD=
EXTT0=
EXTT1=
EXTT2=
EXTT3=
EXTT4=
EXTT5=
EXTT6=
EXTT7=
EXTT8=
EXTT9=
EXTT10=
EXTT11=
PLAYORDER=
